<svg width="40" height="31" viewBox="0 0 40 31" fill="none" xmlns="http://www.w3.org/2000/svg">
<path id="&#226;&#128;&#156;" d="M39.3149 30.5915L24.2139 30.4944C22.7677 25.9444 22.0602 21.2341 22.0916 16.3634C22.1234 11.4101 23.4938 7.49745 26.2028 4.62536C28.9991 1.67128 33.0877 0.211537 38.4685 0.246142L38.4239 7.18069C34.0846 7.15278 31.8987 9.65673 31.8663 14.6925L31.8512 17.0453L39.4017 17.0939L39.3149 30.5915ZM17.3143 30.45L2.21328 30.3529C0.767092 25.8029 0.0596624 21.0926 0.0909867 16.2219C0.122842 11.2686 1.49326 7.35596 4.20225 4.48387C6.99856 1.52979 11.0871 0.0700472 16.4679 0.104652L16.4233 7.0392C12.084 7.01129 9.89809 9.51524 9.86571 14.551L9.85058 16.9038L17.4011 16.9524L17.3143 30.45Z" fill="#CBD5E1"/>
</svg>
