<svg width="40" height="40" viewBox="0 0 40 40" fill="none" xmlns="http://www.w3.org/2000/svg">
<rect width="40" height="40" rx="20" fill="#615EF0" fill-opacity="0.1"/>
<path d="M27.5 22.375H25.3906L23.5156 24.25H27.5C27.8125 24.25 28.125 24.5625 28.125 24.875V28C28.125 28.3516 27.8125 28.625 27.5 28.625H12.5C12.1484 28.625 11.875 28.3516 11.875 28V24.875C11.875 24.5625 12.1484 24.25 12.5 24.25H16.4453L14.5703 22.375H12.5C11.0938 22.375 10 23.5078 10 24.875V28C10 29.4062 11.0938 30.5 12.5 30.5H27.5C28.8672 30.5 30 29.4062 30 28V24.875C30 23.5078 28.8672 22.375 27.5 22.375ZM26.875 26.4375C26.875 25.9297 26.4453 25.5 25.9375 25.5C25.3906 25.5 25 25.9297 25 26.4375C25 26.9844 25.3906 27.375 25.9375 27.375C26.4453 27.375 26.875 26.9844 26.875 26.4375ZM19.3359 24.9141C19.4922 25.1094 19.7266 25.1875 20 25.1875C20.2344 25.1875 20.4688 25.1094 20.625 24.9141L25.9375 19.6016C26.3281 19.25 26.3281 18.6641 25.9375 18.3125C25.5859 17.9219 25 17.9219 24.6484 18.3125L20.9375 22.0234V11.4375C20.9375 10.9297 20.5078 10.5 20 10.5C19.4531 10.5 19.0625 10.9297 19.0625 11.4375V22.0234L15.3125 18.2734C14.9219 17.9219 14.3359 17.9219 13.9844 18.2734C13.5938 18.6641 13.5938 19.25 13.9844 19.6016L19.3359 24.9141Z" fill="#615EF0"/>
</svg>
