<svg width="29" height="29" viewBox="0 0 29 29" fill="none" xmlns="http://www.w3.org/2000/svg">
<path d="M14.7861 11.8638V17.4792H22.4744C22.1368 19.2852 21.1237 20.8143 19.6042 21.8425L24.2406 25.4939C26.9419 22.963 28.5003 19.2457 28.5003 14.8298C28.5003 13.8017 28.4094 12.8129 28.2406 11.8639L14.7861 11.8638Z" fill="#4285F4"/>
<path d="M6.78023 17.2598L5.73456 18.0722L2.0332 20.9985C4.38384 25.7308 9.20166 28.9999 14.786 28.9999C18.6431 28.9999 21.8768 27.7081 24.2405 25.4936L19.6041 21.8422C18.3314 22.7122 16.708 23.2395 14.786 23.2395C11.0718 23.2395 7.91602 20.6955 6.78607 17.2681L6.78023 17.2598Z" fill="#34A853"/>
<path d="M2.03235 8.00146C1.05838 9.9523 0.5 12.1537 0.5 14.5C0.5 16.8464 1.05838 19.0478 2.03235 20.9986C2.03235 21.0117 6.78568 17.2549 6.78568 17.2549C6.49996 16.3849 6.33109 15.4623 6.33109 14.4999C6.33109 13.5375 6.49996 12.6148 6.78568 11.7448L2.03235 8.00146Z" fill="#FBBC05"/>
<path d="M14.7863 5.77364C16.8902 5.77364 18.7603 6.51181 20.2538 7.93547L24.3447 3.78324C21.8642 1.43691 18.6435 0 14.7863 0C9.20196 0 4.38384 3.25591 2.0332 8.00139L6.78638 11.745C7.91618 8.31772 11.0721 5.77364 14.7863 5.77364Z" fill="#EA4335"/>
</svg>
