<svg width="56" height="57" viewBox="0 0 56 57" fill="none" xmlns="http://www.w3.org/2000/svg">
    <g id="emotion">
            <circle id="Ellipse 8" cx="28" cy="28.5" r="28" fill="white"/>
            <g id="vuesax/bold/security-safe">
            <g id="security-safe">
            <path id="Vector" d="M40.8159 27.9667V21.5646C40.8159 20.3688 39.9022 19.0125 38.7674 18.5604L30.5586 15.2354C28.7164 14.4917 26.6385 14.4917 24.7963 15.2354L16.5875 18.5604C15.4674 19.0125 14.5537 20.3688 14.5537 21.5646V27.9667C14.5537 35.0979 19.7855 41.7771 26.9332 43.7313C27.4195 43.8625 27.9501 43.8625 28.4364 43.7313C35.5841 41.7771 40.8159 35.0979 40.8159 27.9667ZM28.7901 30.5188V34.3542C28.7901 34.9521 28.2891 35.4479 27.6848 35.4479C27.0806 35.4479 26.5795 34.9521 26.5795 34.3542V30.5188C25.091 30.0521 24.0004 28.6813 24.0004 27.0625C24.0004 25.05 25.651 23.4167 27.6848 23.4167C29.7186 23.4167 31.3692 25.05 31.3692 27.0625C31.3692 28.6958 30.2786 30.0521 28.7901 30.5188Z" fill="#615EF0"/>
            </g>
        </g>
    </g>
</svg>
