<svg width="56" height="57" viewBox="0 0 56 57" fill="none" xmlns="http://www.w3.org/2000/svg">
<circle cx="28" cy="28.5" r="28" fill="white"/>
<path d="M33.8588 13.9166H21.5094C16.1452 13.9166 12.9473 17.0812 12.9473 22.3895V34.5958C12.9473 39.9187 16.1452 43.0833 21.5094 43.0833H33.8441C39.2083 43.0833 42.4062 39.9187 42.4062 34.6104V22.3895C42.421 17.0812 39.2231 13.9166 33.8588 13.9166ZM22.5262 20.3041C24.0441 20.3041 25.2967 21.5291 25.2967 23.0458C25.2967 24.5625 24.0588 25.7875 22.5262 25.7875C20.9936 25.7875 19.7557 24.5333 19.7557 23.0312C19.7557 21.5291 21.0083 20.3041 22.5262 20.3041ZM27.6841 38.825C23.7199 38.825 20.4925 35.6312 20.4925 31.7083C20.4925 30.6875 21.3325 29.8416 22.3641 29.8416H32.9746C34.0062 29.8416 34.8462 30.6729 34.8462 31.7083C34.8757 35.6312 31.6483 38.825 27.6841 38.825ZM32.842 25.7583C31.3241 25.7583 30.0715 24.5333 30.0715 23.0166C30.0715 21.5 31.3094 20.275 32.842 20.275C34.3746 20.275 35.6125 21.5 35.6125 23.0166C35.6125 24.5333 34.3599 25.7583 32.842 25.7583Z" fill="#615EF0"/>
</svg>
