<svg width="27" height="24" viewBox="0 0 27 24" fill="none" xmlns="http://www.w3.org/2000/svg">
<path d="M26.7188 11.4375L14.0156 0.1875C13.8281 0.09375 13.6406 0.046875 13.5 0.046875C13.3125 0.046875 13.125 0.09375 12.9844 0.1875L0.234375 11.4375C0.046875 11.625 0 11.8125 0 12C0 12.4219 0.328125 12.75 0.75 12.75C0.890625 12.75 1.07812 12.7031 1.21875 12.5625L3 11.0156V20.25C3 22.3125 4.64062 23.9531 6.75 23.9531H20.2031C22.2656 23.9531 23.9531 22.2656 23.9531 20.25V11.0156L25.7344 12.5625C25.875 12.7031 26.0625 12.75 26.2031 12.75C26.5781 12.75 26.9531 12.4219 26.9531 12.0469C26.9531 11.8125 26.9062 11.625 26.7188 11.4375ZM15.75 22.5H11.25V15H15.75V22.5ZM22.4531 9.75V20.25C22.4531 21.5156 21.4219 22.5 20.2031 22.5H17.2031V14.7656C17.25 14.0625 16.6875 13.5 15.9844 13.5H11.0156C10.3125 13.5 9.75 14.0625 9.75 14.7656V22.5H6.75C5.48438 22.5 4.5 21.5156 4.5 20.25V9.75C4.5 9.75 4.45312 9.75 4.45312 9.70312L13.5 1.78125L22.5 9.70312C22.5 9.75 22.4531 9.75 22.4531 9.75Z" fill="black"/>
</svg>
