<svg xmlns="http://www.w3.org/2000/svg" width="24" height="25" viewBox="0 0 24 25" fill="none">
<path d="M20.97 1.5H18.03C17.16 1.5 16.52 1.86 16.23 2.5C16.07 2.79 16 3.13 16 3.53V6.47C16 7.74 16.76 8.5 18.03 8.5H20.97C21.37 8.5 21.71 8.43 22 8.27C22.64 7.98 23 7.34 23 6.47V3.53C23 2.26 22.24 1.5 20.97 1.5ZM21.91 5.43C21.81 5.53 21.66 5.6 21.5 5.61H20.09V6.12L20.1 7C20.09 7.17 20.03 7.31 19.91 7.43C19.81 7.53 19.66 7.6 19.5 7.6C19.17 7.6 18.9 7.33 18.9 7V5.6L17.5 5.61C17.17 5.61 16.9 5.33 16.9 5C16.9 4.67 17.17 4.4 17.5 4.4L18.38 4.41H18.9V3.01C18.9 2.68 19.17 2.4 19.5 2.4C19.83 2.4 20.1 2.68 20.1 3.01L20.09 3.72V4.4H21.5C21.83 4.4 22.1 4.67 22.1 5C22.09 5.17 22.02 5.31 21.91 5.43Z" fill="black"/>
<path d="M9.00012 10.8801C10.3146 10.8801 11.3801 9.81456 11.3801 8.50012C11.3801 7.18568 10.3146 6.12012 9.00012 6.12012C7.68568 6.12012 6.62012 7.18568 6.62012 8.50012C6.62012 9.81456 7.68568 10.8801 9.00012 10.8801Z" fill="black"/>
<path d="M20.97 8.5H20.5V13.11L20.37 13C19.59 12.33 18.33 12.33 17.55 13L13.39 16.57C12.61 17.24 11.35 17.24 10.57 16.57L10.23 16.29C9.52 15.67 8.39 15.61 7.59 16.15L3.85 18.66C3.63 18.1 3.5 17.45 3.5 16.69V8.31C3.5 5.49 4.99 4 7.81 4H16V3.53C16 3.13 16.07 2.79 16.23 2.5H7.81C4.17 2.5 2 4.67 2 8.31V16.69C2 17.78 2.19 18.73 2.56 19.53C3.42 21.43 5.26 22.5 7.81 22.5H16.19C19.83 22.5 22 20.33 22 16.69V8.27C21.71 8.43 21.37 8.5 20.97 8.5Z" fill="black"/>
</svg>