<svg width="56" height="57" viewBox="0 0 56 57" fill="none" xmlns="http://www.w3.org/2000/svg">
<g id="emotion">
<circle id="Ellipse 8" cx="28" cy="28.5" r="28" fill="white"/>
<g id="vuesax/bold/clock">
<g id="clock">
<path id="Vector" d="M27.6848 13.9167C19.5644 13.9167 12.9473 20.4647 12.9473 28.5001C12.9473 36.5355 19.5644 43.0834 27.6848 43.0834C35.8051 43.0834 42.4223 36.5355 42.4223 28.5001C42.4223 20.4647 35.8051 13.9167 27.6848 13.9167ZM34.0956 33.7063C33.8893 34.0563 33.5208 34.2459 33.1376 34.2459C32.9461 34.2459 32.7545 34.2022 32.5776 34.0855L28.009 31.3876C26.8742 30.7167 26.0342 29.2438 26.0342 27.9459V21.9667C26.0342 21.3688 26.5352 20.873 27.1395 20.873C27.7437 20.873 28.2448 21.3688 28.2448 21.9667V27.9459C28.2448 28.4709 28.6869 29.2438 29.1438 29.5063L33.7124 32.2042C34.243 32.5105 34.4198 33.1813 34.0956 33.7063Z" fill="#615EF0"/>
</g>
</g>
</g>
</svg>
