<svg width="24" height="25" viewBox="0 0 24 25" fill="none" xmlns="http://www.w3.org/2000/svg">
<g id="social" clip-path="url(#clip0_106_2418)">
<path id="Vector" d="M5 6.08154C5 5.15329 5.36875 4.26305 6.02513 3.60667C6.6815 2.95029 7.57174 2.58154 8.5 2.58154H12V9.58154H8.5C7.57174 9.58154 6.6815 9.21279 6.02513 8.55642C5.36875 7.90004 5 7.0098 5 6.08154Z" stroke="white" stroke-linecap="round" stroke-linejoin="round"/>
<path id="Vector_2" d="M12 2.58154H15.5C15.9596 2.58154 16.4148 2.67207 16.8394 2.84796C17.264 3.02386 17.6499 3.28166 17.9749 3.60667C18.2999 3.93167 18.5577 4.31751 18.7336 4.74215C18.9095 5.16679 19 5.62192 19 6.08154C19 6.54117 18.9095 6.9963 18.7336 7.42094C18.5577 7.84557 18.2999 8.23141 17.9749 8.55642C17.6499 8.88142 17.264 9.13923 16.8394 9.31512C16.4148 9.49101 15.9596 9.58154 15.5 9.58154H12V2.58154Z" stroke="white" stroke-linecap="round" stroke-linejoin="round"/>
<path id="Vector_3" d="M12 13.0815C12 12.6219 12.0905 12.1668 12.2664 11.7422C12.4423 11.3175 12.7001 10.9317 13.0251 10.6067C13.3501 10.2817 13.736 10.0239 14.1606 9.84796C14.5852 9.67207 15.0404 9.58154 15.5 9.58154C15.9596 9.58154 16.4148 9.67207 16.8394 9.84796C17.264 10.0239 17.6499 10.2817 17.9749 10.6067C18.2999 10.9317 18.5577 11.3175 18.7336 11.7422C18.9095 12.1668 19 12.6219 19 13.0815C19 13.5412 18.9095 13.9963 18.7336 14.4209C18.5577 14.8456 18.2999 15.2314 17.9749 15.5564C17.6499 15.8814 17.264 16.1392 16.8394 16.3151C16.4148 16.491 15.9596 16.5815 15.5 16.5815C15.0404 16.5815 14.5852 16.491 14.1606 16.3151C13.736 16.1392 13.3501 15.8814 13.0251 15.5564C12.7001 15.2314 12.4423 14.8456 12.2664 14.4209C12.0905 13.9963 12 13.5412 12 13.0815V13.0815Z" stroke="white" stroke-linecap="round" stroke-linejoin="round"/>
<path id="Vector_4" d="M5 20.0815C5 19.1533 5.36875 18.263 6.02513 17.6067C6.6815 16.9503 7.57174 16.5815 8.5 16.5815H12V20.0815C12 21.0098 11.6313 21.9 10.9749 22.5564C10.3185 23.2128 9.42826 23.5815 8.5 23.5815C7.57174 23.5815 6.6815 23.2128 6.02513 22.5564C5.36875 21.9 5 21.0098 5 20.0815Z" stroke="white" stroke-linecap="round" stroke-linejoin="round"/>
<path id="Vector_5" d="M5 13.0815C5 12.1533 5.36875 11.263 6.02513 10.6067C6.6815 9.95029 7.57174 9.58154 8.5 9.58154H12V16.5815H8.5C7.57174 16.5815 6.6815 16.2128 6.02513 15.5564C5.36875 14.9 5 14.0098 5 13.0815Z" stroke="white" stroke-linecap="round" stroke-linejoin="round"/>
</g>
<defs>
<clipPath id="clip0_106_2418">
<rect width="24" height="24" fill="white" transform="translate(0 0.581543)"/>
</clipPath>
</defs>
</svg>
