<svg width="23" height="23" viewBox="0 0 23 23" fill="none" xmlns="http://www.w3.org/2000/svg">
<g id="social">
<path id="linkedin" fill-rule="evenodd" clip-rule="evenodd" d="M1.04785 3.33159C1.04785 2.39066 1.80675 1.63159 2.73833 1.63159C3.66991 1.63159 4.4288 2.39066 4.4288 3.33159C4.4288 4.27252 3.66991 5.03159 2.73833 5.03159C1.80675 5.03159 1.04785 4.27252 1.04785 3.33159ZM2.73833 0.631592C1.25038 0.631592 0.0478516 1.84247 0.0478516 3.33159C0.0478516 4.82071 1.25038 6.03159 2.73833 6.03159C4.22628 6.03159 5.4288 4.82071 5.4288 3.33159C5.4288 1.84247 4.22628 0.631592 2.73833 0.631592ZM15.8812 8.23159C14.2716 8.23159 12.7276 8.87374 11.5888 10.0175C10.4499 11.1613 9.80976 12.7131 9.80976 14.3316V21.5316H13.1907V14.3316C13.1907 13.6162 13.4736 12.9297 13.978 12.4232C14.4824 11.9166 15.1669 11.6316 15.8812 11.6316C16.5954 11.6316 17.28 11.9166 17.7844 12.4232C18.2887 12.9297 18.5717 13.6162 18.5717 14.3316V21.5316H21.9526V14.3316C21.9526 12.7131 21.3124 11.1613 20.1736 10.0175C19.0348 8.87374 17.4907 8.23159 15.8812 8.23159ZM15.8812 7.23159C14.005 7.23159 12.2061 7.98015 10.8802 9.3119C9.55426 10.6436 8.80976 12.4493 8.80976 14.3316V22.0316C8.80976 22.3077 9.03361 22.5316 9.30976 22.5316H13.6907C13.9669 22.5316 14.1907 22.3077 14.1907 22.0316V14.3316C14.1907 13.88 14.3693 13.4474 14.6866 13.1287C15.0038 12.8102 15.4335 12.6316 15.8812 12.6316C16.3288 12.6316 16.7586 12.8102 17.0758 13.1287C17.393 13.4474 17.5717 13.88 17.5717 14.3316V22.0316C17.5717 22.3077 17.7955 22.5316 18.0717 22.5316H22.4526C22.7288 22.5316 22.9526 22.3077 22.9526 22.0316V14.3316C22.9526 12.4493 22.2081 10.6436 20.8822 9.3119C19.5562 7.98015 17.7573 7.23159 15.8812 7.23159ZM0.0478516 8.83159C0.0478516 8.55545 0.271709 8.33159 0.547852 8.33159H4.9288C5.20495 8.33159 5.4288 8.55545 5.4288 8.83159V22.0316C5.4288 22.3077 5.20495 22.5316 4.9288 22.5316H0.547852C0.271709 22.5316 0.0478516 22.3077 0.0478516 22.0316V8.83159ZM1.04785 9.33159V21.5316H4.4288V9.33159H1.04785Z" fill="white"/>
</g>
</svg>
