<svg width="24" height="25" viewBox="0 0 24 25" fill="none" xmlns="http://www.w3.org/2000/svg">
<g id="social">
<path id="Vector" d="M23 3.58159C22.0424 4.25707 20.9821 4.7737 19.86 5.11159C19.2577 4.4191 18.4573 3.92828 17.567 3.70552C16.6767 3.48275 15.7395 3.53878 14.8821 3.86604C14.0247 4.1933 13.2884 4.77599 12.773 5.53531C12.2575 6.29462 11.9877 7.19392 12 8.11159V9.11159C10.2426 9.15716 8.50127 8.7674 6.93101 7.97704C5.36074 7.18667 4.01032 6.02022 3 4.58159C3 4.58159 -1 13.5816 8 17.5816C5.94053 18.9796 3.48716 19.6805 1 19.5816C10 24.5816 21 19.5816 21 8.08159C20.9991 7.80304 20.9723 7.52518 20.92 7.25159C21.9406 6.24508 22.6608 4.9743 23 3.58159V3.58159Z" stroke="white" stroke-linecap="round" stroke-linejoin="round"/>
</g>
</svg>
